<svg width="32" height="32" viewBox="0 0 32 32" fill="none" xmlns="http://www.w3.org/2000/svg">
<g clip-path="url(#clip0_132_181)">
<path d="M12.6361 10.2599L12.4318 10.3441C12.0879 9.74331 11.4409 9.33731 10.7005 9.33731H7.53684C6.43741 9.33731 5.54297 10.2318 5.54297 11.3312V20.3291C5.54297 21.4286 6.43747 22.323 7.53684 22.323H10.7005C11.3268 22.323 11.8864 22.0324 12.2522 21.5792C13.3531 22.0669 14.5554 22.323 15.76 22.323H22.4448C23.5659 22.323 24.478 21.4109 24.478 20.2897C24.478 19.939 24.3887 19.6087 24.2317 19.3204C24.9305 18.9983 25.4169 18.2916 25.4169 17.4731C25.4169 17.1367 25.3343 16.8194 25.189 16.5396C25.9316 16.2364 26.4564 15.5067 26.4564 14.6565C26.4564 13.8062 25.9316 13.0766 25.189 12.7735C25.3343 12.4937 25.4169 12.1764 25.4169 11.8399C25.4169 10.7188 24.5048 9.80663 23.3837 9.80663H20.053C19.7382 9.80663 19.482 9.5505 19.482 9.23569V7.39713C19.482 5.56413 17.9908 4.07288 16.1578 4.07288C15.354 4.07288 14.7001 4.72681 14.7001 5.53056V7.17731C14.7 8.53344 13.8899 9.74344 12.6361 10.2599ZM10.7004 21.073H7.53678C7.12659 21.073 6.79291 20.7392 6.79291 20.3291V11.3312C6.79291 10.9211 7.12659 10.5873 7.53678 10.5873H10.7004C11.1106 10.5873 11.4443 10.9211 11.4443 11.3312V20.3291C11.4443 20.7392 11.1106 21.073 10.7004 21.073ZM15.95 7.17744V5.53069C15.95 5.41619 16.0432 5.323 16.1577 5.323C17.3015 5.323 18.232 6.2535 18.232 7.39725V9.23581C18.232 10.2399 19.0488 11.0568 20.0529 11.0568H23.3836C23.8155 11.0568 24.1668 11.4081 24.1668 11.8401C24.1668 12.2719 23.8155 12.6233 23.3836 12.6233H19.4828C19.1377 12.6233 18.8578 12.9031 18.8578 13.2483C18.8578 13.5934 19.1377 13.8733 19.4828 13.8733H24.423C24.855 13.8733 25.2063 14.2247 25.2063 14.6566C25.2063 15.0885 24.855 15.4399 24.423 15.4399H19.4828C19.1377 15.4399 18.8578 15.7197 18.8578 16.0649C18.8578 16.41 19.1377 16.6899 19.4828 16.6899H23.3836C23.8155 16.6899 24.1668 17.0413 24.1668 17.4731C24.1668 17.905 23.8155 18.2564 23.3836 18.2564H19.4828C19.1377 18.2564 18.8578 18.5362 18.8578 18.8814C18.8578 19.2265 19.1377 19.5064 19.4828 19.5064H22.4448C22.8767 19.5064 23.228 19.8577 23.228 20.2897C23.228 20.7216 22.8767 21.0729 22.4448 21.0729H15.7599C14.7049 21.0729 13.6522 20.8427 12.6923 20.4059C12.6933 20.3804 12.6943 20.3548 12.6943 20.3291V11.5878L13.1122 11.4157C14.8361 10.7055 15.95 9.04194 15.95 7.17744Z" fill="#FF9846"/>
<path d="M26.375 1.25H18.8125C18.4674 1.25 18.1875 1.52988 18.1875 1.875C18.1875 2.22012 18.4674 2.5 18.8125 2.5H26.375C28.7874 2.5 30.75 4.46263 30.75 6.875V21.375C30.75 23.7874 28.7874 25.75 26.375 25.75H18.1651C17.9418 25.75 17.7354 25.8691 17.6238 26.0625L16 28.875L14.3762 26.0625C14.2646 25.8691 14.0582 25.75 13.8349 25.75H5.625C3.21263 25.75 1.25 23.7874 1.25 21.375V6.875C1.25 4.46263 3.21263 2.5 5.625 2.5H13.1874C13.5326 2.5 13.8124 2.22012 13.8124 1.875C13.8124 1.52988 13.5326 1.25 13.1874 1.25H5.625C2.52338 1.25 0 3.77338 0 6.875V21.375C0 24.4766 2.52338 27 5.625 27H13.4741L15.4587 30.4375C15.5703 30.6309 15.7766 30.75 15.9999 30.75C16.2232 30.75 16.4296 30.6309 16.5412 30.4375L18.5258 27H26.375C29.4766 27 32 24.4766 32 21.375V6.875C32 3.77338 29.4766 1.25 26.375 1.25Z" fill="#FF9846"/>
<path d="M16 2.5C16.1644 2.5 16.325 2.43313 16.4418 2.31681C16.5581 2.20063 16.625 2.03938 16.625 1.875C16.625 1.71062 16.5581 1.54938 16.4418 1.43313C16.3256 1.31681 16.1644 1.25 16 1.25C15.8356 1.25 15.6744 1.31681 15.5581 1.43313C15.4419 1.54938 15.375 1.71062 15.375 1.875C15.375 2.03938 15.4419 2.20063 15.5581 2.31681C15.6744 2.43313 15.8356 2.5 16 2.5Z" fill="#FF9846"/>
</g>
<defs>
<clipPath id="clip0_132_181">
<rect width="32" height="32" fill="white"/>
</clipPath>
</defs>
</svg>
