<svg width="35" height="36" viewBox="0 0 35 36" fill="none" xmlns="http://www.w3.org/2000/svg">
<path d="M0 35.0085L2.44914 26.3099C0.8742 23.6343 0.0449822 20.5901 0.0449822 17.4628C0.0449822 7.83379 7.87877 0 17.5078 0C27.1368 0 34.9705 7.83379 34.9705 17.4628C34.9705 27.0919 27.1368 34.9256 17.5078 34.9256C14.5075 34.9256 11.5695 34.1576 8.97053 32.6993L0 35.0085ZM9.42914 29.5224L9.96366 29.8487C12.2297 31.2321 14.8385 31.9634 17.5078 31.9634C25.5034 31.9634 32.0082 25.4584 32.0082 17.4628C32.0082 9.46721 25.5034 2.96227 17.5078 2.96227C9.51219 2.96227 3.00726 9.46721 3.00726 17.4628C3.00726 20.2488 3.79906 22.9542 5.29688 25.2866L5.65685 25.8472L4.24647 30.8565L9.42914 29.5224Z" fill="white"/>
<path d="M12.6022 9.335L11.4691 9.27323C11.1132 9.25381 10.764 9.37274 10.495 9.60643C9.94569 10.0835 9.06732 11.0057 8.79753 12.2075C8.39521 13.9995 9.01696 16.1938 10.6261 18.388C12.2353 20.5823 15.2341 24.0932 20.5369 25.5926C22.2457 26.0758 23.5899 25.7501 24.627 25.0866C25.4485 24.5612 26.0147 23.7178 26.2188 22.7644L26.3997 21.9194C26.4572 21.6508 26.3208 21.3783 26.0713 21.2633L22.2418 19.4981C21.9931 19.3836 21.6983 19.456 21.5311 19.6727L20.0277 21.6216C19.9142 21.7689 19.7198 21.8272 19.5442 21.7656C18.5147 21.4037 15.0659 19.9594 13.1736 16.3142C13.0915 16.1561 13.1119 15.9642 13.2283 15.8294L14.6651 14.1672C14.8119 13.9975 14.849 13.7589 14.7608 13.5526L13.1101 9.69058C13.0222 9.48498 12.8252 9.34718 12.6022 9.335Z" fill="white"/>
</svg>
